<?xml version="1.0" encoding="UTF-8"?>
<svg id="Capa_1_copia" data-name="Capa 1 copia" xmlns="http://www.w3.org/2000/svg" viewBox="0 0 383 500">
  <defs>
    <style>
      .cls-1 {
        fill: #fff;
        stroke-width: 0px;
      }
    </style>
  </defs>
  <path class="cls-1" d="m73.47,373.8c0,10.38-6.15,15.41-16.4,15.41s-16.35-4.98-16.35-15.41v-23.89h8.45v23.89c0,4.19,1.08,8.31,7.9,8.31,6.03,0,7.96-2.62,7.96-8.31v-23.89h8.45v23.89Z"/>
  <path class="cls-1" d="m79.94,360.51h7.25v3.87h.15c1.94-3.13,5.28-4.63,8.52-4.63,8.13,0,10.17,4.56,10.17,11.47v17.09h-7.65v-15.72c0-4.57-1.33-6.81-4.9-6.81-4.15,0-5.92,2.29-5.92,7.96v14.58h-7.62v-27.8Z"/>
  <path class="cls-1" d="m119.7,356.19h-7.65v-6.28h7.65v6.28Zm-7.65,4.32h7.65v27.8h-7.65v-27.8Z"/>
  <polygon class="cls-1" points="141.09 388.31 132.6 388.31 123.07 360.51 131.07 360.51 136.95 379.49 137.06 379.49 142.93 360.51 150.51 360.51 141.09 388.31"/>
  <path class="cls-1" d="m159.98,376.26c.22,4.84,2.57,7.05,6.83,7.05,3.07,0,5.54-1.9,6.02-3.6h6.72c-2.13,6.55-6.72,9.36-13.01,9.36-8.76,0-14.2-6.03-14.2-14.64s5.76-14.68,14.2-14.68c9.47,0,14.04,7.97,13.51,16.52h-20.07Zm12.43-4.85c-.71-3.87-2.35-5.91-6.08-5.91-4.84,0-6.22,3.74-6.34,5.91h12.43Z"/>
  <path class="cls-1" d="m184.56,360.51h7.28v5.14h.11c1.38-3.51,5.15-5.91,8.86-5.91.55,0,1.2.09,1.67.26v7.11c-.7-.17-1.82-.28-2.74-.28-5.59,0-7.53,4.05-7.53,8.93v12.54h-7.65v-27.8Z"/>
  <path class="cls-1" d="m211.41,379.27c.07,3.33,2.86,4.69,5.87,4.69,2.21,0,4.99-.85,4.99-3.56,0-2.32-3.15-3.11-8.64-4.31-4.42-.97-8.82-2.53-8.82-7.42,0-7.1,6.13-8.93,12.08-8.93s11.69,2.03,12.28,8.88h-7.27c-.2-2.98-2.47-3.77-5.22-3.77-1.72,0-4.25.3-4.25,2.57,0,2.74,4.32,3.12,8.67,4.14,4.46,1.01,8.81,2.64,8.81,7.82,0,7.31-6.34,9.67-12.71,9.67s-12.73-2.4-13.05-9.79h7.26Z"/>
  <path class="cls-1" d="m242.26,356.19h-7.66v-6.28h7.66v6.28Zm-7.66,4.32h7.66v27.8h-7.66v-27.8Z"/>
  <path class="cls-1" d="m268.12,384.77h-.12c-1.75,2.98-4.89,4.29-8.43,4.29-8.4,0-12.48-7.23-12.48-14.92s4.12-14.4,12.31-14.4c3.29,0,6.52,1.39,8.23,4.13h.12v-13.97h7.63v38.4h-7.25v-3.54Zm-6.68-19.27c-5,0-6.71,4.28-6.71,8.85s1.98,8.96,6.71,8.96c5.06,0,6.56-4.41,6.56-8.99s-1.61-8.82-6.56-8.82"/>
  <path class="cls-1" d="m280.8,369.05c.44-7.16,6.86-9.3,13.11-9.3,5.52,0,12.19,1.23,12.19,7.9v14.45c0,2.53.28,5.07.97,6.21h-7.74c-.28-.85-.49-1.76-.55-2.69-2.43,2.51-5.97,3.45-9.36,3.45-5.26,0-9.47-2.63-9.47-8.36,0-6.28,4.73-7.78,9.47-8.42,4.67-.72,9.04-.54,9.04-3.66,0-3.3-2.26-3.77-4.96-3.77-2.89,0-4.77,1.19-5.03,4.19h-7.67Zm17.67,5.64c-1.31,1.14-3.98,1.2-6.36,1.64-2.35.46-4.5,1.26-4.5,4.07s2.21,3.56,4.67,3.56c5.95,0,6.19-4.76,6.19-6.42v-2.86Z"/>
  <path class="cls-1" d="m331.87,384.77h-.11c-1.77,2.98-4.9,4.29-8.44,4.29-8.4,0-12.47-7.23-12.47-14.92s4.13-14.4,12.34-14.4c3.24,0,6.48,1.39,8.21,4.13h.09v-13.97h7.66v38.4h-7.28v-3.54Zm-6.66-19.27c-5.02,0-6.73,4.28-6.73,8.85s2,8.96,6.73,8.96c5.06,0,6.55-4.41,6.55-8.99s-1.61-8.82-6.55-8.82"/>
  <path class="cls-1" d="m106.13,436.24h-.09c-1.77,3.02-4.89,4.28-8.43,4.28-8.41,0-12.48-7.21-12.48-14.89s4.13-14.42,12.31-14.42c3.27,0,6.49,1.43,8.23,4.15h.11v-13.98h7.61v38.43h-7.26v-3.56Zm-6.66-19.26c-5,0-6.71,4.29-6.71,8.84s1.97,8.95,6.71,8.95c5.06,0,6.57-4.43,6.57-8.97s-1.61-8.82-6.57-8.82"/>
  <path class="cls-1" d="m125.46,427.74c.23,4.83,2.6,7.03,6.86,7.03,3.05,0,5.51-1.88,6.01-3.6h6.72c-2.15,6.57-6.72,9.35-13.03,9.35-8.76,0-14.19-6.01-14.19-14.62s5.75-14.69,14.19-14.69c9.48,0,14.06,7.96,13.51,16.55h-20.08Zm12.44-4.88c-.7-3.87-2.36-5.9-6.09-5.9-4.81,0-6.22,3.75-6.35,5.9h12.44Z"/>
  <rect class="cls-1" x="150.28" y="401.36" width="7.63" height="38.42"/>
  <polygon class="cls-1" points="197.57 439.79 188.05 439.79 175.56 401.36 184.27 401.36 192.85 428.36 192.96 428.36 201.61 401.36 210.31 401.36 197.57 439.79"/>
  <path class="cls-1" d="m209.53,420.52c.43-7.13,6.83-9.32,13.07-9.32,5.54,0,12.2,1.26,12.2,7.92v14.48c0,2.52.28,5.05.98,6.19h-7.75c-.29-.87-.49-1.79-.53-2.7-2.41,2.51-5.97,3.42-9.35,3.42-5.28,0-9.48-2.63-9.48-8.34,0-6.29,4.72-7.78,9.48-8.42,4.67-.72,9.02-.56,9.02-3.67,0-3.3-2.26-3.77-4.94-3.77-2.91,0-4.79,1.18-5.06,4.2h-7.63Zm17.64,5.64c-1.3,1.14-3.99,1.18-6.34,1.62-2.38.48-4.52,1.26-4.52,4.07s2.17,3.56,4.68,3.56c5.97,0,6.18-4.74,6.18-6.39v-2.86Z"/>
  <rect class="cls-1" x="240.94" y="401.36" width="7.63" height="38.42"/>
  <rect class="cls-1" x="254.85" y="401.36" width="7.63" height="38.42"/>
  <path class="cls-1" d="m274.81,427.74c.21,4.83,2.56,7.03,6.82,7.03,3.07,0,5.55-1.88,6.03-3.6h6.71c-2.15,6.57-6.71,9.35-13.01,9.35-8.78,0-14.2-6.01-14.2-14.62s5.75-14.69,14.2-14.69c9.47,0,14.04,7.96,13.49,16.55h-20.04Zm12.42-4.88c-.72-3.87-2.39-5.9-6.09-5.9-4.84,0-6.23,3.75-6.33,5.9h12.42Z"/>
  <rect class="cls-1" x="35.55" y="455.51" width="308.77" height="9.99"/>
  <path class="cls-1" d="m35.55,336.85h308.77V28.07H35.55v308.79Zm102.93-108.08c-53.93,0-97.78-43.87-97.78-97.75V33.23h195.56v97.79h-97.78l43.71,87.38c-13.17,6.64-28.01,10.37-43.71,10.37m102.93,96.59l-94.6-189.21h189.18l-94.58,189.21Z"/>
</svg>